<?xml version="1.0" encoding="UTF-8" standalone="no"?>
<!-- Generator: Adobe Illustrator 20.1.0, SVG Export Plug-In . SVG Version: 6.00 Build 0)  -->

<svg
   xmlns:dc="http://purl.org/dc/elements/1.1/"
   xmlns:cc="http://creativecommons.org/ns#"
   xmlns:rdf="http://www.w3.org/1999/02/22-rdf-syntax-ns#"
   xmlns:svg="http://www.w3.org/2000/svg"
   xmlns="http://www.w3.org/2000/svg"
   xmlns:sodipodi="http://sodipodi.sourceforge.net/DTD/sodipodi-0.dtd"
   xmlns:inkscape="http://www.inkscape.org/namespaces/inkscape"
   version="1.1"
   x="0px"
   y="0px"
   viewBox="0 0 130.41499 43.596001"
   xml:space="preserve"
   id="svg26"
   sodipodi:docname="tieto logo.svg"
   width="130.41499"
   height="43.596001"
   inkscape:version="0.92.1 r15371"><metadata
     id="metadata32"><rdf:RDF><cc:Work
         rdf:about=""><dc:format>image/svg+xml</dc:format><dc:type
           rdf:resource="http://purl.org/dc/dcmitype/StillImage" /><dc:title></dc:title></cc:Work></rdf:RDF></metadata><defs
     id="defs30" /><sodipodi:namedview
     pagecolor="#ffffff"
     bordercolor="#666666"
     borderopacity="1"
     objecttolerance="10"
     gridtolerance="10"
     guidetolerance="10"
     inkscape:pageopacity="0"
     inkscape:pageshadow="2"
     inkscape:window-width="1366"
     inkscape:window-height="705"
     id="namedview28"
     showgrid="false"
     inkscape:zoom="3.1884088"
     inkscape:cx="83.555777"
     inkscape:cy="7.1817449"
     inkscape:window-x="-8"
     inkscape:window-y="-8"
     inkscape:window-maximized="1"
     inkscape:current-layer="svg26" /><g
     id="tieto"
     transform="translate(-44.927,-16.289)"><g
       id="g22"><g
         id="g20"><path
           style="fill:#62b3e3"
           d="m 94.225,45.574 c 0.185,4.359 2.779,7.25 7.341,7.25 2.594,0 5.126,-1.169 6.132,-3.503 h 10.067 c -1.968,7.369 -8.991,10.564 -16.332,10.564 -10.694,0 -17.964,-6.265 -17.964,-16.953 0,-9.763 8.029,-16.769 17.717,-16.769 11.77,0 17.655,8.603 17.144,19.411 z m 13.349,-5.837 c -0.194,-3.563 -2.788,-6.509 -6.388,-6.509 -3.803,0 -6.335,2.642 -6.962,6.509 z"
           id="path10"
           inkscape:connector-curvature="0" /><path
           style="fill:#62b3e3"
           d="m 157.995,26.163 c 10.191,0 17.347,7.309 17.347,16.893 0,9.584 -7.156,16.829 -17.347,16.829 -10.182,0 -17.267,-7.245 -17.267,-16.829 0,-9.584 7.085,-16.893 17.267,-16.893 z m 0,25.735 c 5.003,0 6.582,-4.787 6.582,-8.842 0,-4.055 -1.579,-8.907 -6.582,-8.907 -4.994,0 -6.512,4.852 -6.512,8.907 0,4.055 1.518,8.842 6.512,8.842 z"
           id="path12"
           inkscape:connector-curvature="0" /><path
           style="fill:#62b3e3"
           d="M 67.77,33.935 H 61.126 V 48.12 c 0,2.594 1.518,3.163 3.856,3.163 0.882,0 1.835,-0.128 2.788,-0.128 v 7.91 c -1.968,0.062 -3.926,0.318 -5.885,0.318 -9.176,0 -11.523,-2.66 -11.523,-11.581 V 33.935 h -5.435 v -6.957 h 5.435 V 16.29 h 10.764 v 10.688 h 6.644 z"
           id="path14"
           inkscape:connector-curvature="0" /><path
           style="fill:#62b3e3"
           d="M 81.47,24.04 H 70.713 V 16.289 H 81.47 Z M 70.714,26.978 H 81.47 V 59.065 H 70.714 Z"
           id="path16"
           inkscape:connector-curvature="0" /><path
           style="fill:#62b3e3"
           d="m 140.615,33.935 h -6.644 V 48.12 c 0,2.594 1.518,3.163 3.856,3.163 0.882,0 1.835,-0.128 2.788,-0.128 v 7.91 c -1.968,0.062 -3.926,0.318 -5.885,0.318 -9.176,0 -11.523,-2.66 -11.523,-11.581 V 33.935 h -5.435 v -6.957 h 5.435 V 16.29 h 10.764 v 10.688 h 6.644 z"
           id="path18"
           inkscape:connector-curvature="0" /></g></g></g><g
     id="Layer_1"
     transform="translate(-44.927,-16.289)" /></svg>